<svg width="200" height="200" viewBox="0 0 200 200" fill="none" xmlns="http://www.w3.org/2000/svg">
<rect width="200" height="200" rx="20" fill="#43AF61"/>
<path d="M58.6003 128.56C54.4936 128.56 50.8136 127.893 47.5603 126.56C44.307 125.227 41.6936 123.253 39.7203 120.64C37.8003 118.027 36.787 114.88 36.6803 111.2H51.2403C51.4536 113.28 52.1736 114.88 53.4003 116C54.627 117.067 56.227 117.6 58.2003 117.6C60.227 117.6 61.827 117.147 63.0003 116.24C64.1736 115.28 64.7603 113.973 64.7603 112.32C64.7603 110.933 64.2803 109.787 63.3203 108.88C62.4136 107.973 61.267 107.227 59.8803 106.64C58.547 106.053 56.627 105.387 54.1203 104.64C50.4936 103.52 47.5336 102.4 45.2403 101.28C42.947 100.16 40.9736 98.5067 39.3203 96.32C37.667 94.1333 36.8403 91.28 36.8403 87.76C36.8403 82.5333 38.7336 78.4533 42.5203 75.52C46.307 72.5333 51.2403 71.04 57.3203 71.04C63.507 71.04 68.4936 72.5333 72.2803 75.52C76.067 78.4533 78.0936 82.56 78.3603 87.84H63.5603C63.4536 86.0267 62.787 84.6133 61.5603 83.6C60.3336 82.5333 58.7603 82 56.8403 82C55.187 82 53.8536 82.4533 52.8403 83.36C51.827 84.2133 51.3203 85.4667 51.3203 87.12C51.3203 88.9333 52.1736 90.3467 53.8803 91.36C55.587 92.3733 58.2536 93.4667 61.8803 94.64C65.507 95.8667 68.4403 97.04 70.6803 98.16C72.9736 99.28 74.947 100.907 76.6003 103.04C78.2536 105.173 79.0803 107.92 79.0803 111.28C79.0803 114.48 78.2536 117.387 76.6003 120C75.0003 122.613 72.6536 124.693 69.5603 126.24C66.467 127.787 62.8136 128.56 58.6003 128.56ZM164.779 71.84L150.139 128H133.579L124.619 91.04L115.339 128H98.7791L84.5391 71.84H99.1791L107.259 112.72L117.259 71.84H132.299L141.899 112.72L150.059 71.84H164.779Z" fill="white"/>
</svg>
